<svg width="61" height="61" viewBox="0 0 61 61" fill="none" xmlns="http://www.w3.org/2000/svg">
<path d="M52.2651 0H8.04088C5.90831 0 3.86301 0.84293 2.35506 2.34328C0.847097 3.84364 0 5.87851 0 8.00033V52.0011C0 54.123 0.847097 56.1578 2.35506 57.6582C3.86301 59.1585 5.90831 60.0015 8.04088 60.0015H52.2651C53.321 60.0015 54.3666 59.7946 55.3421 59.3925C56.3177 58.9904 57.2041 58.4011 57.9507 57.6582C58.6974 56.9153 59.2896 56.0334 59.6936 55.0627C60.0977 54.0921 60.3056 53.0517 60.3056 52.0011V8.00201C60.3059 6.95127 60.0981 5.91083 59.6941 4.93999C59.2902 3.96915 58.698 3.087 57.9514 2.34391C57.2047 1.60082 56.3182 1.01135 55.3425 0.609181C54.3669 0.207014 53.3212 -3.76965e-08 52.2651 0ZM58.3318 52.0371C58.3318 53.6285 57.6964 55.1546 56.5655 56.2798C55.4346 57.4051 53.9007 58.0373 52.3013 58.0373H8.00471C6.4053 58.0373 4.87134 57.4051 3.74039 56.2798C2.60944 55.1546 1.97415 53.6285 1.97415 52.0371V7.9656C1.97415 6.37426 2.60944 4.84813 3.74039 3.72289C4.87134 2.59764 6.4053 1.96545 8.00471 1.96545H52.2996C53.899 1.96545 55.4329 2.59764 56.5638 3.72289C57.6948 4.84813 58.3302 6.37426 58.3302 7.9656L58.3318 52.0371Z" fill="white"/>
<path d="M29.4297 6.4165H9.48571C9.0811 6.4165 8.6804 6.49587 8.3066 6.64994C7.9328 6.80401 7.59319 7.0298 7.30711 7.31448C7.02103 7.59915 6.79412 7.93708 6.63932 8.30902C6.48452 8.68096 6.40485 9.07962 6.40491 9.48218V50.5219C6.40491 51.3349 6.72957 52.1145 7.30733 52.6893C7.88508 53.2642 8.66864 53.5871 9.48571 53.5871H29.4297C30.2467 53.5871 31.0303 53.2642 31.608 52.6893C32.1858 52.1145 32.5103 51.3349 32.5103 50.5219V9.48218C32.5104 9.07962 32.4308 8.68096 32.276 8.30902C32.1212 7.93708 31.8943 7.59915 31.6082 7.31448C31.3222 7.0298 30.9825 6.80401 30.6087 6.64994C30.2349 6.49587 29.8343 6.4165 29.4297 6.4165ZM25.1027 9.50792C25.9274 9.50792 26.7338 9.75128 27.4195 10.2072C28.1053 10.6631 28.6397 11.3111 28.9554 12.0693C29.271 12.8274 29.3536 13.6616 29.1927 14.4664C29.0318 15.2713 28.6347 16.0106 28.0515 16.5908C27.4683 17.1711 26.7251 17.5663 25.9162 17.7264C25.1073 17.8865 24.2689 17.8043 23.5069 17.4903C22.7449 17.1762 22.0936 16.6444 21.6354 15.9621C21.1772 15.2798 20.9326 14.4776 20.9326 13.657C20.9326 13.1121 21.0405 12.5727 21.2501 12.0693C21.4596 11.5659 21.7667 11.1084 22.1539 10.7231C22.5412 10.3379 23.0009 10.0322 23.5069 9.82371C24.0128 9.6152 24.555 9.50792 25.1027 9.50792ZM13.5585 9.50792C14.3833 9.50784 15.1896 9.75113 15.8754 10.207C16.5612 10.6628 17.0958 11.3108 17.4115 12.069C17.7272 12.8271 17.8099 13.6614 17.649 14.4662C17.4881 15.2711 17.0909 16.0104 16.5078 16.5907C15.9246 17.171 15.1815 17.5662 14.3726 17.7263C13.5637 17.8864 12.7252 17.8044 11.9632 17.4904C11.2012 17.1763 10.5498 16.6445 10.0916 15.9622C9.63332 15.2799 9.38874 14.4776 9.38874 13.657C9.38874 12.5568 9.82793 11.5016 10.6097 10.7236C11.3915 9.94549 12.4518 9.50826 13.5576 9.50792H13.5585ZM13.6877 30.0018C12.8377 30.0018 12.0069 29.751 11.3001 29.2812C10.5934 28.8113 10.0425 28.1435 9.71717 27.3622C9.39189 26.5809 9.30684 25.7211 9.47266 24.8917C9.63849 24.0622 10.0478 23.3003 10.6488 22.7023C11.2499 22.1043 12.0156 21.6971 12.8493 21.5321C13.683 21.3671 14.547 21.4518 15.3323 21.7755C16.1176 22.0991 16.7888 22.6471 17.2611 23.3503C17.7333 24.0535 17.9853 24.8802 17.9853 25.7259C17.9852 26.2875 17.8738 26.8436 17.6576 27.3624C17.4414 27.8812 17.1246 28.3524 16.7252 28.7493C16.3259 29.1462 15.8519 29.461 15.3302 29.6757C14.8086 29.8903 14.2496 30.0005 13.6851 30.0001L13.6877 30.0018ZM25.2319 30.0018C24.3819 30.0019 23.5509 29.7512 22.8441 29.2814C22.1373 28.8116 21.5864 28.1438 21.2611 27.3625C20.9358 26.5812 20.8506 25.7215 21.0164 24.892C21.1822 24.0625 21.5914 23.3006 22.1924 22.7025C22.7935 22.1045 23.5592 21.6971 24.3929 21.5321C25.2266 21.3671 26.0907 21.4517 26.876 21.7753C27.6614 22.099 28.3326 22.647 28.8049 23.3502C29.2771 24.0534 29.5291 24.8802 29.5291 25.7259C29.5287 26.8599 29.0755 27.9472 28.2693 28.7488C27.4631 29.5504 26.3699 30.0005 25.2302 30.0001L25.2319 30.0018Z" fill="white"/>
<path d="M45.9948 53.5871C50.3707 53.5871 53.9181 50.0576 53.9181 45.7037C53.9181 41.3499 50.3707 37.8204 45.9948 37.8204C41.6189 37.8204 38.0715 41.3499 38.0715 45.7037C38.0715 50.0576 41.6189 53.5871 45.9948 53.5871Z" fill="white"/>
<path d="M51.7764 6.4165H40.2162C39.6482 6.4165 39.1034 6.64102 38.7018 7.04065C38.3001 7.44027 38.0745 7.98233 38.0745 8.54748V32.1494C38.0745 32.7146 38.3001 33.2566 38.7018 33.6562C39.1034 34.0559 39.6482 34.2804 40.2162 34.2804H51.7764C52.0576 34.2804 52.3362 34.2253 52.596 34.1182C52.8559 34.0111 53.092 33.8541 53.2908 33.6562C53.4897 33.4584 53.6474 33.2235 53.755 32.9649C53.8627 32.7064 53.918 32.4292 53.918 32.1494V8.54748C53.918 8.26765 53.8627 7.9905 53.755 7.73197C53.6474 7.47343 53.4897 7.23852 53.2908 7.04065C53.092 6.84277 52.8559 6.68588 52.596 6.57879C52.3362 6.4717 52.0576 6.4165 51.7764 6.4165ZM45.9961 17.8057C45.1713 17.8057 44.365 17.5623 43.6792 17.1064C42.9934 16.6504 42.4589 16.0025 42.1433 15.2443C41.8277 14.4861 41.7452 13.6519 41.9061 12.847C42.0671 12.0422 42.4642 11.3029 43.0475 10.7226C43.6307 10.1424 44.3738 9.74718 45.1827 9.58713C45.9917 9.42708 46.8302 9.50929 47.5922 9.82339C48.3542 10.1375 49.0054 10.6694 49.4636 11.3518C49.9217 12.0342 50.1663 12.8364 50.1662 13.657C50.1662 14.2018 50.0584 14.7413 49.8488 15.2447C49.6392 15.7481 49.332 16.2055 48.9448 16.5907C48.5576 16.976 48.0978 17.2816 47.5919 17.49C47.0859 17.6985 46.5437 17.8058 45.9961 17.8057Z" fill="white"/>
</svg>
