<svg width="166" height="61" viewBox="0 0 166 61" fill="none" xmlns="http://www.w3.org/2000/svg">
<path d="M81.0622 1.97353C84.1028 1.97353 86.4678 2.75753 88.2321 4.40091C89.9965 6.04429 90.897 8.28485 90.897 11.1608C90.897 14.111 90.0336 16.3893 88.2693 17.9949C86.505 19.6006 84.1028 20.385 81.0622 20.385H76.2201V26.9954H69.1636V1.97314L81.0622 1.97353ZM80.7243 14.0748C81.9626 14.0748 82.7879 13.888 83.2003 13.5142C83.6132 13.1407 83.8393 12.3563 83.8393 11.1615C83.8393 9.96675 83.6516 9.18206 83.2403 8.80857C82.8289 8.43507 82.0023 8.24865 80.7643 8.24865H76.185V14.0748H80.7243Z" fill="white"/>
<path d="M104.411 20.2735H111.168V20.7217C111.178 21.6724 110.949 22.6104 110.504 23.4514C110.058 24.2925 109.409 25.01 108.616 25.5394C106.926 26.7711 104.674 27.3699 101.859 27.3699C98.7441 27.3699 96.3417 26.5107 94.6519 24.7924C92.9627 23.0747 92.0994 20.6843 92.0994 17.5847C92.0994 14.41 92.9627 11.9076 94.7266 10.1148C96.4906 8.32201 98.9686 7.4256 102.159 7.4256C105.2 7.4256 107.527 8.20998 109.141 9.81602C110.755 11.422 111.543 13.551 111.543 16.2024C111.519 17.155 111.419 18.1042 111.243 19.041H98.7433C98.7833 20.0494 99.0436 20.7213 99.4941 21.0574C99.9445 21.3936 100.808 21.543 102.122 21.543C102.725 21.5801 103.329 21.478 103.886 21.2446C104.05 21.1603 104.187 21.0313 104.28 20.8725C104.373 20.7138 104.419 20.5319 104.411 20.3482V20.2735ZM101.633 12.9907C100.545 12.9907 99.7944 13.1778 99.3439 13.5136C99.0994 13.7192 98.9048 13.9772 98.7747 14.2683C98.6447 14.5594 98.5827 14.8759 98.5932 15.1943H104.674C104.637 13.7003 103.585 12.9907 101.633 12.9907Z" fill="white"/>
<path d="M134.442 1.99225V27.0335H127.873V24.4194H127.648C126.485 26.3986 124.42 27.407 121.454 27.407C119.052 27.407 117.175 26.5107 115.824 24.7182C114.472 22.9257 113.797 20.4981 113.797 17.4355C113.797 14.3363 114.473 11.9077 115.824 10.1153C117.175 8.32294 119.089 7.42623 121.605 7.42623C124.344 7.42623 126.184 8.39723 127.122 10.3394H127.46V1.99225H134.442ZM124.12 21.2821C125.283 21.2821 126.109 21.058 126.596 20.6464C127.082 20.2347 127.347 19.3749 127.347 18.1066V16.7242C127.347 15.4925 127.084 14.633 126.596 14.1848C126.108 13.7366 125.282 13.5126 124.12 13.5126C122.731 13.5126 121.83 13.8114 121.417 14.409C121.004 15.005 120.818 16.015 120.818 17.4343C120.818 18.8536 121.044 19.8616 121.457 20.4218C121.87 20.9821 122.771 21.2809 124.16 21.2809L124.12 21.2821Z" fill="white"/>
<path d="M146.606 7.42609C152.574 7.42609 155.465 10.0406 155.465 15.4185V26.9217H148.858V24.6045H148.52C147.282 26.3967 145.255 27.293 142.439 27.2933C140.922 27.3597 139.43 26.8826 138.235 25.9487C137.147 25.0523 136.622 23.745 136.622 22.0647C136.622 19.114 138.648 17.2843 142.665 16.6121L148.821 15.6409V14.9691C148.821 14.3333 148.67 13.9233 148.333 13.6976C147.996 13.4719 147.319 13.3619 146.306 13.3619C145.292 13.3619 144.617 13.4739 144.279 13.6976C143.941 13.9213 143.791 14.3333 143.791 14.9293V15.5253H137.073V15.0771C137.073 12.7246 137.936 10.8572 139.663 9.47475C141.389 8.09878 143.716 7.42609 146.606 7.42609ZM144.729 22.2157C146.118 22.2157 147.131 21.9916 147.769 21.6197C148.092 21.4196 148.356 21.1379 148.534 20.8033C148.712 20.4687 148.798 20.0932 148.783 19.7149L144.091 20.4996C143.377 20.6112 143.04 20.9101 143.04 21.3956C143.023 21.5283 143.046 21.663 143.106 21.7827C143.166 21.9023 143.261 22.0015 143.377 22.0679C143.815 22.2015 144.273 22.2517 144.729 22.2157H144.729Z" fill="white"/>
<path d="M165.413 1.97357H158.394V26.9962H165.413V1.97357Z" fill="white"/>
<path d="M81.0622 32.568C84.1028 32.568 86.4678 33.352 88.2321 34.9954C89.9965 36.6387 90.897 38.8793 90.897 41.7552C90.897 44.7054 90.0336 46.9837 88.2693 48.5894C86.505 50.195 84.1028 50.9794 81.0622 50.9794H76.2201V57.5899H69.1636V32.5676L81.0622 32.568ZM80.7243 44.6693C81.9626 44.6693 82.7879 44.4824 83.2003 44.1087C83.6132 43.7352 83.8393 42.9508 83.8393 41.756C83.8393 40.5612 83.6516 39.7765 83.2403 39.403C82.8289 39.0295 82.0023 38.8431 80.7643 38.8431H76.185V44.6693H80.7243Z" fill="white"/>
<path d="M104.411 50.868H111.168V51.3161C111.178 52.2668 110.949 53.2049 110.504 54.0459C110.058 54.8869 109.409 55.6045 108.616 56.1338C106.926 57.3656 104.674 57.9643 101.859 57.9643C98.7441 57.9643 96.3417 57.1051 94.6519 55.3868C92.9627 53.6691 92.0994 51.2788 92.0994 48.1792C92.0994 45.0045 92.9627 42.502 94.7266 40.7092C96.4906 38.9165 98.9686 38.0201 102.159 38.0201C105.2 38.0201 107.527 38.8044 109.141 40.4105C110.755 42.0165 111.543 44.1454 111.543 46.7968C111.519 47.7495 111.419 48.6987 111.243 49.6354H98.7433C98.7833 50.6439 99.0436 51.3157 99.4941 51.6519C99.9445 51.988 100.808 52.1374 102.122 52.1374C102.725 52.1746 103.329 52.0725 103.886 51.839C104.05 51.7548 104.187 51.6258 104.28 51.467C104.373 51.3082 104.419 51.1263 104.411 50.9427V50.868ZM101.633 43.5852C100.545 43.5852 99.7944 43.7723 99.3439 44.108C99.0994 44.3136 98.9048 44.5717 98.7747 44.8627C98.6447 45.1538 98.5827 45.4704 98.5932 45.7888H104.674C104.637 44.2948 103.585 43.5852 101.633 43.5852Z" fill="white"/>
<path d="M134.442 32.5867V57.628H127.873V55.0139H127.648C126.485 56.993 124.42 58.0015 121.454 58.0015C119.052 58.0015 117.175 57.1052 115.824 55.3126C114.472 53.5201 113.797 51.0926 113.797 48.0299C113.797 44.9307 114.473 42.5022 115.824 40.7098C117.175 38.9174 119.089 38.0207 121.605 38.0207C124.344 38.0207 126.184 38.9917 127.122 40.9339H127.46V32.5867H134.442ZM124.12 51.8765C125.283 51.8765 126.109 51.6525 126.596 51.2408C127.082 50.8292 127.347 49.9693 127.347 48.701V47.3187C127.347 46.0869 127.084 45.2275 126.596 44.7793C126.108 44.3311 125.282 44.107 124.12 44.107C122.731 44.107 121.83 44.4059 121.417 45.0034C121.004 45.5995 120.818 46.6095 120.818 48.0288C120.818 49.4481 121.044 50.456 121.457 51.0163C121.87 51.5765 122.771 51.8753 124.16 51.8753L124.12 51.8765Z" fill="white"/>
<path d="M137.484 32.5681H144.503V36.6758H137.484V32.5681ZM137.484 38.3943H144.54V57.5904H137.484V38.3943Z" fill="white"/>
<path d="M156.966 38.0205C162.934 38.0205 165.824 40.635 165.824 46.0129V57.5162H159.218V55.1989H158.88C157.641 56.9911 155.614 57.8874 152.799 57.8877C151.281 57.954 149.79 57.477 148.595 56.5431C147.506 55.6467 146.981 54.3394 146.981 52.6591C146.981 49.7085 149.008 47.8788 153.024 47.2065L159.18 46.2353V45.5635C159.18 44.9277 159.03 44.5177 158.692 44.292C158.355 44.0663 157.679 43.9563 156.665 43.9563C155.652 43.9563 154.976 44.0683 154.639 44.292C154.301 44.5157 154.151 44.9277 154.151 45.5237V46.1197H147.432V45.6716C147.432 43.3191 148.295 41.4516 150.021 40.0692C151.748 38.6932 154.076 38.0205 156.966 38.0205ZM155.089 52.8101C156.477 52.8101 157.491 52.586 158.129 52.2141C158.452 52.0141 158.716 51.7323 158.894 51.3977C159.072 51.0631 159.158 50.6876 159.142 50.3093L154.45 51.094C153.737 51.2056 153.399 51.5045 153.399 51.99C153.382 52.1228 153.405 52.2576 153.465 52.3773C153.526 52.497 153.62 52.5962 153.737 52.6623C154.174 52.796 154.633 52.8462 155.089 52.8101H155.089Z" fill="white"/>
<path d="M52.2651 0H8.04088C5.90831 0 3.86301 0.84293 2.35506 2.34328C0.847097 3.84364 0 5.87851 0 8.00033V52.0011C0 54.123 0.847097 56.1578 2.35506 57.6582C3.86301 59.1585 5.90831 60.0015 8.04088 60.0015H52.2651C53.321 60.0015 54.3666 59.7946 55.3421 59.3925C56.3177 58.9904 57.2041 58.4011 57.9507 57.6582C58.6974 56.9153 59.2896 56.0334 59.6936 55.0627C60.0977 54.0921 60.3056 53.0517 60.3056 52.0011V8.00201C60.3059 6.95127 60.0981 5.91083 59.6941 4.93999C59.2902 3.96915 58.698 3.087 57.9514 2.34391C57.2047 1.60082 56.3182 1.01135 55.3425 0.609181C54.3669 0.207014 53.3212 -3.76965e-08 52.2651 0ZM58.3318 52.0371C58.3318 53.6285 57.6964 55.1546 56.5655 56.2798C55.4346 57.4051 53.9007 58.0373 52.3013 58.0373H8.00471C6.4053 58.0373 4.87134 57.4051 3.74039 56.2798C2.60944 55.1546 1.97415 53.6285 1.97415 52.0371V7.9656C1.97415 6.37426 2.60944 4.84813 3.74039 3.72289C4.87134 2.59764 6.4053 1.96545 8.00471 1.96545H52.2996C53.899 1.96545 55.4329 2.59764 56.5638 3.72289C57.6948 4.84813 58.3302 6.37426 58.3302 7.9656L58.3318 52.0371Z" fill="white"/>
<path d="M29.4297 6.4165H9.48571C9.0811 6.4165 8.6804 6.49587 8.3066 6.64994C7.9328 6.80401 7.59319 7.0298 7.30711 7.31448C7.02103 7.59915 6.79412 7.93708 6.63932 8.30902C6.48452 8.68096 6.40485 9.07962 6.40491 9.48218V50.5219C6.40491 51.3349 6.72957 52.1145 7.30733 52.6893C7.88508 53.2642 8.66864 53.5871 9.48571 53.5871H29.4297C30.2467 53.5871 31.0303 53.2642 31.608 52.6893C32.1858 52.1145 32.5103 51.3349 32.5103 50.5219V9.48218C32.5104 9.07962 32.4308 8.68096 32.276 8.30902C32.1212 7.93708 31.8943 7.59915 31.6082 7.31448C31.3222 7.0298 30.9825 6.80401 30.6087 6.64994C30.2349 6.49587 29.8343 6.4165 29.4297 6.4165ZM25.1027 9.50792C25.9274 9.50792 26.7338 9.75128 27.4195 10.2072C28.1053 10.6631 28.6397 11.3111 28.9554 12.0693C29.271 12.8274 29.3536 13.6616 29.1927 14.4664C29.0318 15.2713 28.6347 16.0106 28.0515 16.5908C27.4683 17.1711 26.7251 17.5663 25.9162 17.7264C25.1073 17.8865 24.2689 17.8043 23.5069 17.4903C22.7449 17.1762 22.0936 16.6444 21.6354 15.9621C21.1772 15.2798 20.9326 14.4776 20.9326 13.657C20.9326 13.1121 21.0405 12.5727 21.2501 12.0693C21.4596 11.5659 21.7667 11.1084 22.1539 10.7231C22.5412 10.3379 23.0009 10.0322 23.5069 9.82371C24.0128 9.6152 24.555 9.50792 25.1027 9.50792ZM13.5585 9.50792C14.3833 9.50784 15.1896 9.75113 15.8754 10.207C16.5612 10.6628 17.0958 11.3108 17.4115 12.069C17.7272 12.8271 17.8099 13.6614 17.649 14.4662C17.4881 15.2711 17.0909 16.0104 16.5078 16.5907C15.9246 17.171 15.1815 17.5662 14.3726 17.7263C13.5637 17.8864 12.7252 17.8044 11.9632 17.4904C11.2012 17.1763 10.5498 16.6445 10.0916 15.9622C9.63332 15.2799 9.38874 14.4776 9.38874 13.657C9.38874 12.5568 9.82793 11.5016 10.6097 10.7236C11.3915 9.94549 12.4518 9.50826 13.5576 9.50792H13.5585ZM13.6877 30.0018C12.8377 30.0018 12.0069 29.751 11.3001 29.2812C10.5934 28.8113 10.0425 28.1435 9.71717 27.3622C9.39189 26.5809 9.30684 25.7211 9.47266 24.8917C9.63849 24.0622 10.0478 23.3003 10.6488 22.7023C11.2499 22.1043 12.0156 21.6971 12.8493 21.5321C13.683 21.3671 14.547 21.4518 15.3323 21.7755C16.1176 22.0991 16.7888 22.6471 17.2611 23.3503C17.7333 24.0535 17.9853 24.8802 17.9853 25.7259C17.9852 26.2875 17.8738 26.8436 17.6576 27.3624C17.4414 27.8812 17.1246 28.3524 16.7252 28.7493C16.3259 29.1462 15.8519 29.461 15.3302 29.6757C14.8086 29.8903 14.2496 30.0005 13.6851 30.0001L13.6877 30.0018ZM25.2319 30.0018C24.3819 30.0019 23.5509 29.7512 22.8441 29.2814C22.1373 28.8116 21.5864 28.1438 21.2611 27.3625C20.9358 26.5812 20.8506 25.7215 21.0164 24.892C21.1822 24.0625 21.5914 23.3006 22.1924 22.7025C22.7935 22.1045 23.5592 21.6971 24.3929 21.5321C25.2266 21.3671 26.0907 21.4517 26.876 21.7753C27.6614 22.099 28.3326 22.647 28.8049 23.3502C29.2771 24.0534 29.5291 24.8802 29.5291 25.7259C29.5287 26.8599 29.0755 27.9472 28.2693 28.7488C27.4631 29.5504 26.3699 30.0005 25.2302 30.0001L25.2319 30.0018Z" fill="white"/>
<path d="M45.9948 53.5871C50.3707 53.5871 53.9181 50.0576 53.9181 45.7037C53.9181 41.3499 50.3707 37.8204 45.9948 37.8204C41.6189 37.8204 38.0715 41.3499 38.0715 45.7037C38.0715 50.0576 41.6189 53.5871 45.9948 53.5871Z" fill="white"/>
<path d="M51.7764 6.4165H40.2162C39.6482 6.4165 39.1034 6.64102 38.7018 7.04065C38.3001 7.44027 38.0745 7.98233 38.0745 8.54748V32.1494C38.0745 32.7146 38.3001 33.2566 38.7018 33.6562C39.1034 34.0559 39.6482 34.2804 40.2162 34.2804H51.7764C52.0576 34.2804 52.3362 34.2253 52.596 34.1182C52.8559 34.0111 53.092 33.8541 53.2908 33.6562C53.4897 33.4584 53.6474 33.2235 53.755 32.9649C53.8627 32.7064 53.918 32.4292 53.918 32.1494V8.54748C53.918 8.26765 53.8627 7.9905 53.755 7.73197C53.6474 7.47343 53.4897 7.23852 53.2908 7.04065C53.092 6.84277 52.8559 6.68588 52.596 6.57879C52.3362 6.4717 52.0576 6.4165 51.7764 6.4165ZM45.9961 17.8057C45.1713 17.8057 44.365 17.5623 43.6792 17.1064C42.9934 16.6504 42.4589 16.0025 42.1433 15.2443C41.8277 14.4861 41.7452 13.6519 41.9061 12.847C42.0671 12.0422 42.4642 11.3029 43.0475 10.7226C43.6307 10.1424 44.3738 9.74718 45.1827 9.58713C45.9917 9.42708 46.8302 9.50929 47.5922 9.82339C48.3542 10.1375 49.0054 10.6694 49.4636 11.3518C49.9217 12.0342 50.1663 12.8364 50.1662 13.657C50.1662 14.2018 50.0584 14.7413 49.8488 15.2447C49.6392 15.7481 49.332 16.2055 48.9448 16.5907C48.5576 16.976 48.0978 17.2816 47.5919 17.49C47.0859 17.6985 46.5437 17.8058 45.9961 17.8057Z" fill="white"/>
</svg>
