<svg width="120" height="121" viewBox="0 0 120 121" fill="none" xmlns="http://www.w3.org/2000/svg">
<path d="M31.1548 97.0498C31.6932 97.4948 31.9441 98.0263 31.9145 98.6514C31.8848 99.2764 31.5977 99.9183 31.0465 100.586C30.5017 101.245 29.9251 101.648 29.3168 101.795C29.0233 101.869 28.7162 101.869 28.4225 101.796C28.1288 101.723 27.8576 101.579 27.6327 101.377C26.9975 100.852 26.7347 100.269 26.8369 99.6379L26.7887 99.5981L26.3241 100.161L24.9172 98.9982L29.3685 93.6124L30.8718 94.855L29.3834 96.6555L29.4557 96.7152C30.0019 96.4634 30.5685 96.58 31.1556 97.0649L31.1548 97.0498ZM28.1354 99.5733C28.4328 99.8192 28.679 99.9142 28.867 99.8666C29.055 99.8191 29.2829 99.642 29.5351 99.3362C29.7872 99.0303 29.9266 98.7804 29.9445 98.5791C29.9624 98.3779 29.8226 98.1533 29.5253 97.9082C29.2756 97.7021 29.0589 97.6042 28.8751 97.6146C28.6908 97.6244 28.4885 97.755 28.2693 98.0202L28.0234 98.3179C27.7976 98.5913 27.7009 98.8224 27.7322 98.9976C27.8022 99.2311 27.9495 99.4338 28.1501 99.5724L28.1354 99.5733Z" fill="#F2F4EF"/>
<path d="M38.2833 101.983L33.5996 105.549C32.6691 106.261 31.7081 106.307 30.7167 105.69C30.3606 105.471 30.032 105.21 29.738 104.912L30.5942 103.529L31.5254 104.105C31.6222 104.171 31.7307 104.217 31.8451 104.242C31.9357 104.251 32.0268 104.23 32.1038 104.181L32.9797 98.7016L34.8333 99.8484L34.2785 102.093L33.9394 103.097L34.0549 103.169L34.784 102.406L36.4475 100.847L38.2833 101.983Z" fill="#F2F4EF"/>
<path d="M40.9492 101.715L43.0064 102.401L42.5433 104.841L41.8922 107.549L42.0206 107.592L43.2555 105.08L44.5193 102.907L47.1802 103.796L46.8883 106.183L46.3923 109.052L46.5208 109.095L47.6696 106.444L48.7035 104.304L50.7213 104.979L47.3404 111.216L44.61 110.304L44.8752 107.6L45.2768 105.216L45.1581 105.176L44.0357 107.319L42.6225 109.64L39.8921 108.728L40.9492 101.715Z" fill="#F2F4EF"/>
<path d="M54.7064 111.018L52.0802 110.676L51.462 111.953L49.456 111.692L52.7656 105.077L55.5884 105.444L57.0863 112.683L54.9561 112.407L54.7064 111.018ZM54.3789 109.251L54.3073 108.832L53.9953 106.951L53.8503 106.932L53.0465 108.667L52.8592 109.053L54.3789 109.251Z" fill="#F2F4EF"/>
<path d="M58.5177 105.737L62.0294 105.614C63.7589 105.554 64.6487 106.243 64.6987 107.671C64.7186 108.244 64.6094 108.696 64.371 109.028C64.132 109.36 63.7313 109.562 63.1612 109.644L63.1642 109.738C63.4523 109.788 63.7187 109.924 63.9287 110.128C64.1436 110.365 64.3218 110.633 64.4573 110.924L65.2421 112.482L62.9598 112.562L62.2218 111.137C62.1165 110.904 61.9674 110.693 61.7826 110.516C61.6538 110.416 61.4333 110.372 61.1212 110.383L60.6415 110.4L60.7196 112.629L58.7605 112.698L58.5177 105.737ZM62.0656 108.753C62.3464 108.743 62.5324 108.685 62.6231 108.588C62.7137 108.491 62.7593 108.302 62.7493 108.02C62.763 107.83 62.7043 107.642 62.585 107.494C62.4883 107.403 62.2988 107.369 62.0178 107.378L60.5383 107.429L60.5851 108.794L62.0656 108.753Z" fill="#F2F4EF"/>
<path d="M65.2266 105.633L67.3386 105.138L68.2253 107.458L69.0923 110.104L69.2241 110.073L68.9566 107.287L68.8924 104.774L71.6229 104.133L72.6282 106.319L73.7114 109.021L73.8434 108.99L73.4309 106.13L73.1872 103.767L75.2587 103.281L75.6552 110.365L72.8528 111.022L71.6595 108.58L70.7487 106.342L70.6271 106.37L70.7966 108.783L70.8122 111.5L68.0101 112.157L65.2266 105.633Z" fill="#F2F4EF"/>
<path d="M75.7881 102.781L77.6059 102.049L80.2165 108.528L78.3982 109.261L75.7881 102.781Z" fill="#F2F4EF"/>
<path d="M84.8726 106.419C83.9024 106.949 82.9969 107.075 82.1561 106.797C81.3152 106.519 80.6299 105.894 80.1003 104.925C79.5706 103.954 79.4164 103.041 79.6375 102.184C79.8586 101.326 80.4542 100.633 81.4241 100.103C82.367 99.5881 83.201 99.4182 83.935 99.5873C84.6691 99.7564 85.2361 100.208 85.6409 100.949L85.756 101.16L83.9163 102.164L83.9007 102.137C83.7058 101.78 83.4978 101.572 83.2766 101.515C83.0549 101.458 82.7362 101.549 82.3155 101.779C81.8576 102.028 81.5965 102.29 81.5408 102.558C81.4851 102.826 81.6226 103.274 81.9577 103.887C82.2929 104.501 82.5946 104.858 82.8502 104.956C83.1058 105.054 83.467 104.976 83.9246 104.726C84.3459 104.496 84.5944 104.277 84.666 104.06C84.7376 103.843 84.6755 103.556 84.4807 103.199L84.4651 103.171L86.3046 102.167L86.4198 102.377C86.8243 103.119 86.897 103.839 86.6427 104.548C86.3884 105.258 85.7944 105.867 84.8514 106.382L84.8726 106.419Z" fill="#F2F4EF"/>
<path d="M91.0813 97.7629L94.778 99.338L93.0082 100.732L90.465 99.5753L89.4496 100.376L90.985 102.326L89.4452 103.539L85.1222 98.0503L86.6625 96.8374L88.2695 98.8769L89.2681 98.0904L88.7429 95.1988L90.4876 93.8242L91.0813 97.7629Z" fill="#F2F4EF"/>
<path d="M5.78291 55.3614L6.92049 49.615C7.48031 46.7844 8.93696 45.6017 11.2736 46.064C12.2116 46.2497 12.9043 46.5995 13.3515 47.1135C13.7993 47.6271 13.9756 48.3528 13.8917 49.3112L14.0448 49.3425C14.237 48.8937 14.5594 48.5129 14.9703 48.2493C15.4372 47.991 15.94 47.8039 16.4622 47.6942L19.2897 47.0136L18.5511 50.7478L15.9584 51.4043C15.3789 51.5555 14.994 51.7095 14.7832 51.8804C14.5724 52.0512 14.4158 52.3926 14.3152 52.9042L14.1601 53.6887L17.809 54.4108L17.1749 57.6162L5.78291 55.3614ZM12.0294 50.7503C12.1207 50.29 12.0958 49.9658 11.9731 49.7829C11.8503 49.6001 11.5599 49.4529 11.0993 49.3616C10.6732 49.2771 10.366 49.3052 10.1824 49.4281C9.99871 49.5511 9.8703 49.8447 9.77872 50.305L9.29941 52.7268L11.5332 53.1685L12.0294 50.7503Z" fill="#F2F4EF"/>
<path d="M23.5174 39.1722C22.5801 40.7386 21.386 41.685 19.9257 42.0275C18.4653 42.37 16.9443 42.0673 15.378 41.1304C13.8116 40.1934 12.826 38.9959 12.4368 37.5479C12.0475 36.0998 12.3253 34.5845 13.2626 33.0181C14.1998 31.4518 15.3939 30.5046 16.854 30.1629C18.3141 29.8212 19.835 30.1232 21.4016 31.0602C22.9683 31.9971 23.9539 33.1944 24.3429 34.643C24.7319 36.0915 24.4632 37.5919 23.5261 39.1577L23.5174 39.1722ZM21.2408 35.6631C21.0823 35.1833 20.5207 34.6653 19.5662 34.0942C18.6116 33.5232 17.8898 33.2739 17.3921 33.3609C16.8944 33.448 16.4182 33.8721 15.9537 34.6475C15.4809 35.438 15.3237 36.0733 15.4822 36.5533C15.6407 37.033 16.2023 37.5519 17.1571 38.1223C18.112 38.6928 18.8332 38.9432 19.3309 38.8557C19.8286 38.7681 20.3138 38.3299 20.7872 37.5388C21.2512 36.7634 21.3993 36.143 21.2408 35.6631Z" fill="#F2F4EF"/>
<path d="M33.4451 27.8746C32.0136 29.0348 30.5668 29.5132 29.1045 29.31C27.6422 29.1067 26.3311 28.2897 25.1713 26.8587C24.0111 25.4272 23.4834 23.9753 23.5884 22.5031C23.6933 21.0308 24.4614 19.7145 25.8927 18.5542C27.2838 17.4269 28.6001 16.8973 29.8548 16.9544C31.1096 17.0115 32.1751 17.5806 33.0615 18.6748L33.3131 18.9855L30.5983 21.1854L30.5657 21.1447C30.1392 20.6182 29.7356 20.341 29.3548 20.3133C28.9748 20.2858 28.4791 20.5306 27.858 21.0341C27.1827 21.5816 26.8331 22.0888 26.8218 22.5447C26.8106 23.0006 27.1715 23.6939 27.9048 24.5987C28.6381 25.5034 29.2413 25.9996 29.6897 26.0836C30.1382 26.1675 30.7072 25.9303 31.3825 25.3835C32.0041 24.8797 32.3456 24.4457 32.3979 24.068C32.4501 23.6903 32.2624 23.2383 31.8352 22.7114L31.8023 22.671L34.5172 20.471L34.7688 20.7816C35.6555 21.8759 35.9913 23.0358 35.7872 24.2749C35.5831 25.5141 34.7926 26.692 33.4013 27.8198L33.4451 27.8746Z" fill="#F2F4EF"/>
<path d="M46.5877 14.2092L51.5649 18.6902L48.0214 19.9317L44.6356 16.7346L42.6014 17.4475L43.9696 21.3519L40.8857 22.4324L37.0339 11.4414L40.1181 10.3608L41.5493 14.4454L43.5506 13.7444L44.2849 8.90074L47.7784 7.67657L46.5877 14.2092Z" fill="#F2F4EF"/>
<path d="M54.8481 6.6764L61.0352 6.61898C62.3726 6.6065 63.3657 6.82338 64.0131 7.28677C64.6604 7.75017 64.9968 8.47693 65.0063 9.46722C65.0207 10.9793 64.2285 11.8209 62.6483 11.9747L62.6506 12.2005C63.6066 12.2262 64.3391 12.4975 64.8481 13.0145C65.3571 13.5312 65.6066 14.189 65.614 15.0058C65.634 17.1608 64.2537 18.2511 61.4908 18.2767L54.9564 18.3376L54.8481 6.6764ZM60.9197 11.0696C61.2501 11.0662 61.4756 11.0119 61.5962 10.9067C61.7168 10.8014 61.7847 10.6103 61.7819 10.3138C61.7791 10.0174 61.7076 9.81064 61.5674 9.70751C61.4271 9.60437 61.1839 9.55476 60.8184 9.55803L58.142 9.58283L58.1559 11.0776L60.9197 11.0696ZM61.3762 15.3238C61.7239 15.3207 61.9666 15.2663 62.1044 15.1607C62.2423 15.055 62.3099 14.8284 62.3065 14.4635C62.303 14.0985 62.2314 13.8559 62.0916 13.7529C61.9518 13.65 61.7079 13.6002 61.3427 13.6033L58.1971 13.6328L58.2127 15.3706L61.3762 15.3238Z" fill="#F2F4EF"/>
<path d="M74.3897 20.9618C72.6734 20.3434 71.5147 19.3534 70.8989 17.9863C70.2831 16.6192 70.2871 15.0686 70.9056 13.3523C71.5241 11.6361 72.5094 10.4386 73.8554 9.77827C75.2015 9.11797 76.7407 9.10004 78.4582 9.71868C80.1757 10.3373 81.3333 11.3267 81.9491 12.6938C82.5649 14.0609 82.5609 15.6114 81.9422 17.3277C81.3236 19.044 80.3389 20.2412 78.9933 20.9018C77.6478 21.5624 76.124 21.5858 74.4073 20.9676L74.3897 20.9618ZM77.3949 18.0542C77.8352 17.8064 78.2354 17.1562 78.6119 16.1099C78.9884 15.0636 79.0955 14.3074 78.9139 13.8359C78.7323 13.3644 78.2255 12.9777 77.3752 12.6721C76.5084 12.36 75.8552 12.3279 75.4154 12.5756C74.9751 12.8234 74.5744 13.4733 74.1984 14.5199C73.8224 15.5665 73.7147 16.3221 73.8966 16.7936C74.0785 17.2651 74.6014 17.6574 75.4681 17.9696C76.3174 18.2756 76.9546 18.3019 77.3949 18.054V18.0542Z" fill="#F2F4EF"/>
<path d="M90.2428 27.6968L86.8423 24.8814L84.8373 26.1318L82.24 23.9815L92.7849 17.5952L96.4394 20.621L92.1192 32.161L89.3619 29.878L90.2428 27.6968ZM91.3506 24.9137L91.6222 24.2584L92.8522 21.3283L92.665 21.1732L89.9896 22.9068L89.3833 23.2845L91.3506 24.9137Z" fill="#F2F4EF"/>
<path d="M103.985 28.7565L106.989 33.7846C108.469 36.2612 108.184 38.1118 106.135 39.3361C105.315 39.8264 104.566 40.0306 103.89 39.9489C103.214 39.8674 102.598 39.4458 102.018 38.6785L101.883 38.759C102.041 39.2207 102.057 39.7192 101.928 40.1899C101.755 40.6942 101.507 41.1698 101.193 41.6008L99.549 44.0013L97.5966 40.7341L99.0818 38.5101C99.4106 38.0098 99.5931 37.6377 99.6352 37.3694C99.6774 37.1012 99.565 36.7435 99.2974 36.296L98.8874 35.6095L95.6945 37.5177L94.0188 34.7125L103.985 28.7565ZM102.436 36.3634C102.677 36.7663 102.912 36.9903 103.126 37.0443C103.34 37.0983 103.654 37.0131 104.057 36.7717C104.43 36.5491 104.638 36.3225 104.693 36.108C104.747 35.8934 104.646 35.5894 104.405 35.1874L103.139 33.0687L101.185 34.2369L102.436 36.3634Z" fill="#F2F4EF"/>
<path d="M113.111 49.7845C113.487 51.6413 113.283 53.1723 112.499 54.3776C111.714 55.5835 110.421 56.3769 108.598 56.7462C106.775 57.1155 105.278 56.905 104.087 56.1001C102.897 55.2951 102.111 53.9644 101.735 52.1075L100.737 47.1843L112.151 44.8711L113.148 49.7946L113.111 49.7845ZM105.48 53.2639C105.904 53.5147 106.705 53.53 107.88 53.2916C109.056 53.0532 109.788 52.7278 110.08 52.3316C110.373 51.9355 110.405 51.2191 110.198 50.1973L109.884 48.6469L104.228 49.7934L104.542 51.3433C104.749 52.3662 105.057 53.013 105.48 53.2642V53.2639Z" fill="#F2F4EF"/>
<path d="M59.9998 120.938C26.9158 120.938 0 94.022 0 60.938C0 27.8539 26.9158 0.93811 59.9998 0.93811C93.0839 0.93811 120 27.854 120 60.938C120 94.0219 93.0839 120.938 59.9998 120.938ZM59.9998 3.71912C28.4492 3.71912 2.78099 29.3875 2.78099 60.938C2.78099 92.4885 28.4492 118.157 59.9998 118.157C91.5505 118.157 117.219 92.4886 117.219 60.938C117.219 29.3873 91.5505 3.71895 59.9998 3.71895V3.71912Z" fill="#F2F4EF"/>
<path d="M59.9998 100.473C38.1998 100.473 20.4641 82.7371 20.4641 60.9369C20.4641 39.1368 38.1998 21.4014 59.9998 21.4014C81.7998 21.4014 99.5357 39.1369 99.5357 60.9369C99.5357 82.7369 81.7998 100.473 59.9998 100.473ZM59.9998 24.1824C39.7332 24.1824 23.2451 40.6703 23.2451 60.9369C23.2451 81.2035 39.7332 97.6918 59.9998 97.6918C80.2664 97.6918 96.7547 81.2037 96.7547 60.9369C96.7547 40.6702 80.2664 24.1824 59.9998 24.1824Z" fill="#F2F4EF"/>
<path d="M7.32219 71.6213L12.1686 72.4488L7.75641 64.6788L13.7364 65.9895L19.1458 78.3916L15.0662 77.5289L21.8549 89.7201L7.32219 71.6213Z" fill="#F2F4EF"/>
<path d="M112.678 71.6213L107.831 72.4488L112.244 64.6788L106.264 65.9895L100.854 78.3916L104.934 77.5289L98.1452 89.7201L112.678 71.6213Z" fill="#F2F4EF"/>
<path d="M67.8585 27.4192L67.8567 27.4267C67.8974 27.4417 67.941 27.4475 67.9842 27.4435C68.0274 27.4395 68.0691 27.4259 68.1064 27.4036C68.1702 27.317 68.2157 27.2183 68.2403 27.1135C68.2648 27.0088 68.2677 26.9001 68.249 26.7942C68.194 26.7286 68.1192 26.6826 68.0359 26.6631C67.9525 26.6436 67.8651 26.6516 67.7867 26.6859C67.7232 26.7713 67.678 26.8688 67.6538 26.9724C67.6297 27.076 67.6271 27.1835 67.6463 27.2881C67.6696 27.3245 67.7007 27.3551 67.7375 27.3778C67.7742 27.4005 67.8155 27.4146 67.8585 27.4192Z" fill="#F2F4EF"/>
<path d="M56.9184 95.2011C56.87 95.1895 56.8196 95.1895 56.7713 95.201C56.7229 95.2126 56.6779 95.2354 56.64 95.2676C56.5836 95.3571 56.5536 95.4608 56.5535 95.5666C56.5355 95.6701 56.5485 95.7765 56.5907 95.8726C56.6273 95.9324 56.714 95.9698 56.8519 95.9818C56.9381 95.9967 57.0268 95.9819 57.1034 95.9397C57.136 95.9071 57.1615 95.868 57.1782 95.8251C57.195 95.7821 57.2027 95.7361 57.2008 95.6901L57.213 95.5512C57.2219 95.5062 57.2219 95.4599 57.2129 95.4149C57.2039 95.3699 57.186 95.3272 57.1604 95.2891C57.0931 95.2313 57.0071 95.2 56.9184 95.2011Z" fill="#F2F4EF"/>
<path d="M61.8391 25.7162L61.8351 25.7198C61.7552 25.7089 61.6739 25.7231 61.6024 25.7605C61.5769 25.78 61.5561 25.805 61.5415 25.8336C61.527 25.8622 61.5191 25.8938 61.5184 25.9259L62.1287 25.9571C62.1328 25.807 62.0349 25.7263 61.8391 25.7162Z" fill="#F2F4EF"/>
<path d="M59.0447 26.5235C59.1322 26.5288 59.219 26.5039 59.2904 26.453C59.319 26.417 59.3398 26.3755 59.3516 26.3311C59.3635 26.2867 59.366 26.2403 59.3591 26.1949L59.3553 26.0556C59.3591 26.0099 59.3538 25.9639 59.3397 25.9203C59.3256 25.8767 59.3029 25.8363 59.2731 25.8016C59.1999 25.7513 59.1108 25.7295 59.0227 25.7402C58.8834 25.744 58.7938 25.7766 58.754 25.8381C58.7081 25.9333 58.69 26.0396 58.7017 26.1447C58.6958 26.2495 58.721 26.3537 58.7741 26.4442C58.8104 26.4769 58.8535 26.501 58.9004 26.5147C58.9472 26.5285 58.9965 26.5315 59.0447 26.5235Z" fill="#F2F4EF"/>
<path d="M50.109 93.8358L50.1042 93.8382C50.0293 93.8087 49.9471 93.8032 49.8689 93.8226C49.8394 93.8353 49.8133 93.8546 49.7923 93.8789C49.7713 93.9032 49.7561 93.932 49.7478 93.963L50.3331 94.1382C50.3727 93.994 50.2967 93.8925 50.109 93.8358Z" fill="#F2F4EF"/>
<path d="M46.041 29.4685C46.0448 29.4815 46.0523 29.493 46.0627 29.5017C46.073 29.5104 46.0857 29.5159 46.0991 29.5174C46.1446 29.5123 46.1888 29.4987 46.2294 29.4774L46.2281 29.474C46.3272 29.4388 46.4158 29.3793 46.4857 29.3008C46.5075 29.2695 46.5205 29.2329 46.5235 29.1948C46.5265 29.1568 46.5193 29.1186 46.5027 29.0842L46.1017 29.3435C46.041 29.3827 46.0217 29.4237 46.041 29.4685Z" fill="#F2F4EF"/>
<path d="M56.0134 26.748C56.0131 26.7614 56.0168 26.7747 56.0241 26.7861C56.0313 26.7974 56.0418 26.8064 56.0541 26.8118C56.0993 26.8206 56.1457 26.8209 56.1909 26.8126V26.8088C56.296 26.8048 56.3984 26.7744 56.4886 26.7205C56.5189 26.6969 56.5423 26.6657 56.5565 26.63C56.5707 26.5944 56.5751 26.5556 56.5695 26.5177L56.1092 26.6463C56.0388 26.6654 56.0084 26.6991 56.0134 26.748Z" fill="#F2F4EF"/>
<path d="M43.8917 29.8091C43.8181 29.6777 43.6928 29.6587 43.5196 29.7504L43.5179 29.7556C43.4439 29.787 43.3815 29.8407 43.3394 29.9092C43.3274 29.9391 43.3222 29.9713 43.3244 30.0034C43.3266 30.0355 43.3359 30.0666 43.3519 30.0946L43.8917 29.8091Z" fill="#F2F4EF"/>
<path d="M41.1735 31.7701C41.2649 31.7768 41.3554 31.7481 41.4262 31.6899C41.5046 31.6479 41.5699 31.5849 41.6145 31.508C41.6251 31.4735 41.627 31.4369 41.62 31.4016C41.6131 31.3662 41.5975 31.3331 41.5748 31.3051L41.528 31.2318C41.4777 31.1524 41.424 31.1103 41.3648 31.1079C41.2784 31.114 41.1956 31.1449 41.1263 31.1968C41.0149 31.2675 40.9547 31.3331 40.9401 31.3955C40.9304 31.4755 40.9528 31.556 41.0025 31.6195C41.0386 31.6893 41.0996 31.7431 41.1735 31.7701Z" fill="#F2F4EF"/>
<path d="M66.9271 94.478C67.0177 94.4672 67.1041 94.4335 67.1781 94.38C67.195 94.3557 67.2068 94.3281 67.2128 94.2991C67.2187 94.2701 67.2187 94.2401 67.2127 94.2111C67.2067 94.182 67.1949 94.1545 67.1779 94.1302C67.1609 94.1059 67.1392 94.0853 67.114 94.0697C66.9344 94.0453 66.752 94.083 66.5969 94.1767C66.58 94.201 66.5682 94.2286 66.5623 94.2576C66.5563 94.2866 66.5564 94.3166 66.5624 94.3456C66.5684 94.3746 66.5802 94.4021 66.5972 94.4264C66.6141 94.4507 66.6359 94.4713 66.661 94.4869C66.749 94.5065 66.8406 94.5035 66.9271 94.478Z" fill="#F2F4EF"/>
<path d="M67.3437 94.9384C67.2361 94.9159 67.1245 94.9204 67.0191 94.9517C66.9101 94.964 66.8058 95.0028 66.7152 95.0647C66.6954 95.0923 66.6815 95.1238 66.6744 95.157C66.6674 95.1903 66.6673 95.2247 66.6742 95.258C66.6811 95.2913 66.6948 95.3228 66.7145 95.3505C66.7342 95.3783 66.7594 95.4016 66.7885 95.4192C66.8976 95.4397 67.01 95.4337 67.1162 95.4015L67.1104 95.4103C67.2208 95.3969 67.3262 95.3566 67.4173 95.2929C67.437 95.2652 67.4508 95.2338 67.4578 95.2005C67.4649 95.1673 67.4649 95.133 67.458 95.0997C67.4511 95.0664 67.4375 95.0349 67.4178 95.0071C67.3982 94.9794 67.3731 94.956 67.344 94.9384H67.3437Z" fill="#F2F4EF"/>
<path d="M98.1252 58.7259C97.8562 53.0309 96.1945 47.977 94.0495 43.737C91.7745 39.2308 89.2632 36.0704 85.8352 32.9098C79.5032 27.0588 70.2439 22.1297 57.763 22.865C56.302 22.9557 54.8472 23.128 53.4055 23.3813C44.0242 25.0241 36.9412 29.5458 31.8061 35.1629C28.727 38.5267 26.452 42.1566 24.5338 46.9442C22.4346 52.1039 21.54 57.6744 21.9179 63.2319C22.3391 69.1775 23.7875 73.9808 25.9889 78.2052C28.0651 82.2775 30.8479 85.9488 34.2078 89.048C40.4303 94.7585 49.9948 99.7969 62.2002 98.9988C73.9411 98.2323 82.0145 93.2103 88.0898 86.7794C91.1455 83.5562 93.6082 79.6602 95.4356 75.0759C97.263 70.4916 98.4241 65.1093 98.1252 58.7259ZM79.6362 30.3119L78.9551 31.3573L79.1757 31.5012L79.8265 31.1382L80.4732 31.5595L79.5034 32.0605L79.4154 33.1819L78.7687 32.7606L78.8428 32.0396L78.6087 31.8875L78.2566 32.4273L77.6667 32.0423L79.0456 29.9276L79.6362 30.3119ZM75.7742 29.9017C75.8331 29.7777 75.9161 29.6665 76.0184 29.5749C76.1207 29.4832 76.2402 29.4128 76.3699 29.3678C76.502 29.3327 76.6398 29.3251 76.7749 29.3455C76.91 29.3659 77.0395 29.4139 77.1552 29.4866C77.3785 29.5941 77.5553 29.7789 77.6529 30.0067C77.6933 30.1125 77.7091 30.2261 77.6989 30.3389C77.6888 30.4517 77.653 30.5607 77.5944 30.6575L77.5548 30.7301L76.9324 30.3914L76.9613 30.3383C76.9792 30.3127 76.991 30.2834 76.9959 30.2526C77.0008 30.2218 76.9986 30.1903 76.9895 30.1604C76.957 30.0993 76.9047 30.051 76.8411 30.0236C76.8074 30.0002 76.769 29.9844 76.7287 29.9772C76.6883 29.9699 76.6468 29.9714 76.6071 29.9816C76.5473 30.0047 76.4823 30.0851 76.4082 30.221C76.3475 30.3086 76.316 30.4131 76.3181 30.5196C76.3311 30.5587 76.3523 30.5945 76.3804 30.6246C76.4084 30.6548 76.4426 30.6785 76.4807 30.6942C76.5394 30.7332 76.6094 30.7516 76.6796 30.7465C76.71 30.7385 76.7381 30.7237 76.762 30.7032C76.7858 30.6828 76.8046 30.6572 76.8171 30.6283L76.846 30.5753L77.4683 30.9145L77.4286 30.9871C77.3789 31.0888 77.3067 31.1778 77.2175 31.2475C77.1283 31.3171 77.0244 31.3656 76.9137 31.3891C76.6706 31.4311 76.4205 31.3833 76.21 31.2546L76.1896 31.2523C76.0667 31.1947 75.9566 31.1132 75.8655 31.0127C75.7744 30.9121 75.7043 30.7945 75.6591 30.6666C75.6247 30.538 75.6172 30.4037 75.6371 30.2721C75.657 30.1405 75.7038 30.0144 75.7747 29.9017H75.7742ZM73.2497 28.7241C73.3397 28.5456 73.4783 28.3961 73.6495 28.2929C73.8207 28.1898 74.0176 28.1371 74.2175 28.1409C74.4173 28.1447 74.612 28.2049 74.7792 28.3146C74.9463 28.4243 75.0791 28.5789 75.1621 28.7607C75.235 29.0198 75.2152 29.2963 75.106 29.5423C74.9969 29.7884 74.8053 29.9886 74.5642 30.1085C74.4351 30.1523 74.2985 30.1696 74.1625 30.1592C74.0266 30.1488 73.8941 30.111 73.7732 30.0481L73.7634 30.0521C73.6359 30.0039 73.5194 29.9304 73.4211 29.8361C73.3227 29.7417 73.2445 29.6283 73.1911 29.5029C73.1477 29.3759 73.1306 29.2413 73.1408 29.1074C73.1509 28.9736 73.1882 28.8431 73.2502 28.7241H73.2497ZM71.2682 26.9501L71.889 27.1721L71.7903 27.4487L71.8215 27.4603C71.9038 27.3819 72.0066 27.3284 72.118 27.3058C72.2294 27.2833 72.3449 27.2927 72.4512 27.3329L72.4428 27.334C72.7587 27.4467 72.8484 27.699 72.7093 28.0894L72.5915 28.4193L71.924 28.1809L71.9887 28.0001C72.0099 27.9537 72.0172 27.9022 72.0098 27.8517C72.0011 27.8205 71.9658 27.7957 71.9053 27.7737C71.8628 27.7536 71.8154 27.7463 71.7689 27.7527C71.7377 27.7617 71.7129 27.7968 71.6909 27.8572L71.2788 29.0104L70.6156 28.7734L71.2682 26.9501ZM66.9639 26.8109C66.9878 26.6751 67.039 26.5456 67.1144 26.4303C67.1899 26.315 67.2881 26.2162 67.403 26.1401C67.5179 26.0639 67.647 26.0119 67.7827 25.9873C67.9183 25.9627 68.0575 25.9659 68.1918 25.9968C68.3261 26.0278 68.4527 26.0857 68.5639 26.1671C68.6751 26.2485 68.7686 26.3517 68.8386 26.4705C68.9087 26.5892 68.9538 26.7209 68.9713 26.8576C68.9888 26.9943 68.9782 27.1332 68.9403 27.2657C68.9175 27.3979 68.868 27.5242 68.795 27.6368C68.722 27.7494 68.627 27.8461 68.5156 27.921C68.3972 27.9884 68.2664 28.0311 68.131 28.0466C67.9957 28.0621 67.8586 28.0501 67.728 28.0113L67.7189 28.0171C67.5846 27.9939 67.4564 27.9438 67.342 27.8698C67.2276 27.7958 67.1294 27.6993 67.0532 27.5863C66.9867 27.4698 66.9444 27.341 66.9291 27.2078C66.9138 27.0745 66.9256 26.9395 66.9639 26.8109ZM64.9328 25.4776L65.2085 25.5216L65.3945 25.1472L65.9491 25.2358L65.8867 25.6304L66.3932 25.7112L66.3019 26.2846L65.7944 26.2113L65.6979 26.8145C65.6921 26.8346 65.6912 26.8558 65.6952 26.8763C65.6992 26.8969 65.7081 26.9161 65.721 26.9326C65.7654 26.9648 65.818 26.9838 65.8727 26.9877L66.1779 27.0362L66.0843 27.6208C65.9324 27.6291 65.78 27.6202 65.6301 27.5943C65.4228 27.578 65.2285 27.4874 65.0829 27.339C65.028 27.2618 64.9906 27.1736 64.9731 27.0804C64.9556 26.9873 64.9585 26.8915 64.9816 26.7997L65.0948 26.0921L64.8415 26.0517L64.9328 25.4776ZM61.157 25.3937C61.261 25.305 61.3821 25.2386 61.5129 25.1987C61.6436 25.1587 61.7812 25.146 61.917 25.1614C62.0444 25.1591 62.171 25.1825 62.2892 25.2301C62.4073 25.2778 62.5147 25.3487 62.6049 25.4388C62.6823 25.5284 62.7405 25.6328 62.7762 25.7457C62.8118 25.8586 62.8241 25.9776 62.8123 26.0953C62.8048 26.1913 62.7897 26.2865 62.7672 26.3801L61.513 26.3147C61.5081 26.3519 61.5113 26.3897 61.5225 26.4255C61.5337 26.4613 61.5526 26.4942 61.5779 26.5219C61.6571 26.5675 61.7478 26.5891 61.839 26.5843C61.8993 26.5914 61.9604 26.5842 62.0175 26.5633C62.0345 26.5557 62.0489 26.5434 62.0591 26.5279C62.0693 26.5123 62.0747 26.4942 62.0749 26.4756L62.0529 26.467L62.7531 26.5035L62.7508 26.5486C62.747 26.6445 62.7193 26.738 62.6702 26.8205C62.6212 26.903 62.5524 26.972 62.4699 27.0212C62.2627 27.1434 62.0217 27.1957 61.7825 27.1705C61.6502 27.1721 61.5189 27.1464 61.3969 27.0952C61.2749 27.044 61.1646 26.9683 61.073 26.8728C60.9892 26.7702 60.9267 26.6519 60.8891 26.5248C60.8516 26.3977 60.8399 26.2643 60.8546 26.1326C60.8534 25.9956 60.8796 25.8596 60.9315 25.7328C60.9834 25.6059 61.0601 25.4906 61.157 25.3937ZM58.1814 25.4196C58.246 25.3285 58.332 25.2547 58.4319 25.2047C58.5318 25.1548 58.6424 25.1302 58.754 25.1331C58.8649 25.1174 58.9779 25.1356 59.0782 25.1854C59.1784 25.2352 59.2613 25.3141 59.3157 25.412H59.3494L59.327 24.5683L60.0277 24.5527L60.0952 27.076L59.4359 27.0936L59.4288 26.8302H59.4064C59.3401 26.9232 59.2538 27 59.1537 27.0549C59.0537 27.1098 58.9425 27.1414 58.8285 27.1474C58.7146 27.1534 58.6007 27.1336 58.4954 27.0895C58.3902 27.0454 58.2962 26.9781 58.2206 26.8926C58.0816 26.6736 58.0045 26.421 57.9976 26.1617C57.9907 25.9024 58.0541 25.646 58.1813 25.4199L58.1814 25.4196ZM55.5491 25.5875C55.7341 25.4195 55.9714 25.3206 56.221 25.3076L56.2127 25.301C56.8089 25.2377 57.1333 25.4764 57.1911 26.0162L57.3138 27.1708L56.6538 27.2409L56.629 27.0082L56.5954 27.012C56.5352 27.1123 56.4505 27.1957 56.3492 27.2542C56.2478 27.3127 56.1333 27.3444 56.0163 27.3464C55.8654 27.3693 55.7113 27.3372 55.5821 27.256C55.5219 27.2136 55.4723 27.1578 55.4371 27.0932C55.402 27.0285 55.3821 26.9565 55.3792 26.883C55.348 26.5865 55.5309 26.3817 55.9253 26.2715L56.5304 26.1088L56.5232 26.0412C56.524 26.0172 56.5187 25.9934 56.5078 25.972C56.4969 25.9506 56.4807 25.9323 56.4608 25.9189C56.3245 25.8878 56.1818 25.9029 56.0551 25.9618C56.0387 25.9785 56.0269 25.9991 56.0206 26.0217C56.0144 26.0443 56.014 26.0681 56.0194 26.0908L56.0259 26.1507L55.355 26.222L55.3499 26.1771C55.3345 26.0701 55.3445 25.9609 55.3791 25.8585C55.4137 25.7561 55.472 25.6632 55.5491 25.5875ZM51.8413 26.0712L51.9 26.359L51.9332 26.3522C51.9626 26.2394 52.0269 26.1389 52.1169 26.0649C52.2143 25.9851 52.3303 25.931 52.454 25.9076C52.5723 25.8706 52.699 25.8701 52.8176 25.9063C52.9361 25.9425 53.041 26.0137 53.1184 26.1105L53.1516 26.1038C53.1924 25.9858 53.265 25.8813 53.3613 25.802C53.4577 25.7226 53.5741 25.6715 53.6977 25.6541H53.694L53.7052 25.6518C53.7026 25.6518 53.7004 25.6532 53.6977 25.6536C53.7906 25.6269 53.8884 25.6216 53.9836 25.638C54.0789 25.6545 54.1692 25.6923 54.2477 25.7487C54.3939 25.873 54.4907 26.0457 54.5203 26.2353L54.7682 27.45L54.0739 27.5915L53.8555 26.521C53.848 26.4444 53.8143 26.3728 53.7601 26.3181C53.688 26.2851 53.6059 26.2812 53.5309 26.3071C53.45 26.3147 53.3742 26.3505 53.317 26.4083C53.2995 26.4411 53.2889 26.4771 53.2859 26.5142C53.2829 26.5512 53.2875 26.5885 53.2994 26.6236L53.52 27.7052L52.8259 27.8467L52.6074 26.7761C52.6 26.6995 52.5663 26.6278 52.5119 26.5733C52.4398 26.5404 52.3578 26.5365 52.2829 26.5625C52.2019 26.5699 52.1261 26.6057 52.069 26.6636C52.0516 26.6964 52.041 26.7324 52.038 26.7694C52.0349 26.8064 52.0395 26.8437 52.0513 26.8789L52.272 27.9605L51.5819 28.1009L51.1945 26.2032L51.8413 26.0712ZM48.1307 27.1663L48.2269 27.444L48.2581 27.4328C48.2733 27.3202 48.32 27.2143 48.3928 27.1271C48.4655 27.0399 48.5615 26.975 48.6695 26.9399L48.6637 26.946C48.9806 26.8368 49.2083 26.9772 49.3438 27.3684L49.4582 27.6993L48.789 27.9308L48.7266 27.7492C48.7139 27.6997 48.6873 27.655 48.6498 27.6202C48.6238 27.6015 48.5806 27.6046 48.5202 27.6253C48.4745 27.6363 48.433 27.6603 48.4007 27.6945C48.3819 27.721 48.3851 27.7637 48.4058 27.8243L48.8057 28.9809L48.1403 29.211L47.5076 27.3815L48.1307 27.1663ZM45.2522 28.4997C45.3787 28.2844 45.5758 28.1195 45.81 28.033L45.8002 28.029C46.3498 27.7909 46.7319 27.9212 46.9464 28.42L47.4069 29.4853L46.7984 29.7484L46.7058 29.5338L46.6746 29.5474C46.6472 29.661 46.5913 29.7658 46.5121 29.8517C46.4329 29.9377 46.3331 30.002 46.2221 30.0386C46.085 30.1053 45.9285 30.1207 45.781 30.0818C45.711 30.0592 45.6471 30.0208 45.5943 29.9696C45.5415 29.9184 45.5012 29.8557 45.4764 29.7864C45.3583 29.5131 45.4718 29.263 45.815 29.0406L46.3432 28.7055L46.3163 28.6431C46.2909 28.5839 46.2608 28.5521 46.2207 28.5446C46.0814 28.5557 45.9498 28.6125 45.8462 28.7063C45.8357 28.7271 45.8305 28.7503 45.8313 28.7737C45.8321 28.7971 45.8388 28.8199 45.8507 28.84L45.8748 28.8952L45.2555 29.1628L45.2376 29.1215C45.1911 29.024 45.1683 28.9169 45.1708 28.809C45.1734 28.701 45.2013 28.5952 45.2522 28.5V28.4997ZM42.7691 29.8228C42.8128 29.6934 42.8826 29.5743 42.9743 29.473C43.0659 29.3718 43.1775 29.2904 43.3019 29.2341C43.4101 29.1669 43.5306 29.1221 43.6565 29.1024C43.7823 29.0827 43.9108 29.0886 44.0343 29.1196C44.1467 29.1568 44.2503 29.2165 44.3388 29.295C44.4273 29.3736 44.4989 29.4694 44.5492 29.5766C44.592 29.6626 44.6277 29.7519 44.6561 29.8437L43.547 30.4304C43.5979 30.5187 43.653 30.5663 43.7087 30.575C43.8 30.5736 43.889 30.5458 43.9649 30.4949C44.0201 30.4701 44.0688 30.4327 44.1072 30.3857C44.1178 30.3706 44.1239 30.3526 44.1247 30.3341C44.1254 30.3156 44.1209 30.2972 44.1115 30.2812L44.0881 30.2849L44.7077 29.9573L44.7288 29.9974C44.7745 30.0818 44.7984 30.1762 44.7984 30.2722C44.7984 30.3682 44.7745 30.4627 44.7288 30.5471C44.6136 30.7579 44.4337 30.9262 44.2156 31.027C44.1029 31.0962 43.9772 31.1416 43.8462 31.1602C43.7153 31.1788 43.5819 31.1703 43.4544 31.1353C43.3299 31.0902 43.2157 31.0207 43.1184 30.9309C43.0212 30.841 42.9429 30.7327 42.8881 30.6121C42.8169 30.4951 42.7697 30.3651 42.7492 30.2296C42.7288 30.0941 42.7355 29.9559 42.7691 29.8231V29.8228ZM40.2318 31.3277C40.2537 31.2165 40.2999 31.1116 40.367 31.0204C40.4342 30.9291 40.5206 30.8538 40.6202 30.7998C40.7085 30.7315 40.8143 30.6892 40.9254 30.6778C41.0365 30.6663 41.1487 30.6863 41.2491 30.7352L41.2681 30.7231L41.1368 30.5163L41.6997 30.172L42.5769 31.5534C42.7588 31.8399 42.8221 32.0944 42.7669 32.3169C42.681 32.5777 42.4974 32.7951 42.2547 32.9235C42.045 33.0756 41.7888 33.1499 41.5302 33.1333C41.4169 33.116 41.3092 33.0726 41.2154 33.0066C41.1217 32.9406 41.0444 32.8539 40.9898 32.7531L41.588 32.3732C41.5999 32.3982 41.6175 32.4202 41.6392 32.4374C41.661 32.4546 41.6864 32.4666 41.7136 32.4724C41.7931 32.4614 41.8682 32.429 41.9308 32.3788C41.9992 32.3443 42.0571 32.2922 42.0985 32.2278C42.1054 32.1975 42.1051 32.166 42.0976 32.1359C42.0901 32.1058 42.0757 32.0778 42.0554 32.0543L41.8935 31.7996L41.868 31.816C41.8698 31.9803 41.7618 32.1337 41.5421 32.2729C41.4526 32.3387 41.35 32.3846 41.2413 32.4074C41.1326 32.4303 41.0202 32.4295 40.9118 32.4053C40.6952 32.3381 40.513 32.1899 40.4031 31.9916C40.2658 31.7992 40.2047 31.5627 40.2318 31.328V31.3277ZM46.1258 92.8653C46.0778 92.9688 46.0098 93.0619 45.9257 93.1392C45.8416 93.2164 45.7432 93.2763 45.6359 93.3154C45.5287 93.3546 45.4147 93.3721 45.3007 93.3672C45.1866 93.3622 45.0747 93.3349 44.9712 93.2866C39.5767 90.7785 34.8951 86.9611 31.3525 82.1818C27.81 77.4025 25.519 71.8131 24.6882 65.9223C23.8574 60.0315 24.513 54.0265 26.5956 48.4539C28.6781 42.8812 32.1212 37.9179 36.6117 34.0157C36.6978 33.9405 36.7979 33.8831 36.9062 33.8467C37.0145 33.8103 37.1289 33.7955 37.2429 33.8034C37.3569 33.8113 37.4682 33.8415 37.5705 33.8924C37.6728 33.9434 37.7641 34.014 37.839 34.1002C37.914 34.1865 37.9712 34.2866 38.0074 34.395C38.0437 34.5034 38.0581 34.6178 38.0501 34.7318C38.042 34.8458 38.0115 34.9571 37.9604 35.0593C37.9093 35.1615 37.8385 35.2526 37.7521 35.3274C33.4801 39.0394 30.2044 43.761 28.2232 49.0623C26.242 54.3636 25.6182 60.0762 26.4086 65.6802C27.199 71.2842 29.3784 76.6014 32.7486 81.148C36.1187 85.6945 40.5725 89.326 45.7045 91.7117C45.9134 91.8089 46.0751 91.985 46.1541 92.2014C46.2331 92.4178 46.2229 92.6567 46.1258 92.8656V92.8653ZM50.9651 94.4346C50.9352 94.5258 50.8981 94.6145 50.854 94.6999L49.6512 94.3396C49.6375 94.3745 49.6316 94.412 49.6339 94.4494C49.6363 94.4868 49.6469 94.5233 49.6649 94.5561C49.7311 94.6193 49.814 94.6619 49.9038 94.6791C49.9608 94.7001 50.0218 94.7075 50.0822 94.7008C50.1005 94.6975 50.1174 94.6889 50.131 94.6763C50.1446 94.6636 50.1542 94.6472 50.1588 94.6292L50.1391 94.6156L50.8109 94.817L50.798 94.8604C50.7714 94.9526 50.7222 95.0368 50.655 95.1053C50.5877 95.1738 50.5045 95.2245 50.4128 95.2528C50.1825 95.3222 49.9361 95.3159 49.7097 95.2349C49.5807 95.2052 49.4592 95.1493 49.3528 95.0707C49.2463 94.992 49.1571 94.8924 49.0908 94.7779C49.0337 94.6583 49.001 94.5286 48.9947 94.3963C48.9884 94.2639 49.0086 94.1317 49.0541 94.0072C49.0854 93.8736 49.1429 93.7477 49.2235 93.6366C49.3041 93.5256 49.406 93.4317 49.5233 93.3605C49.6453 93.299 49.7786 93.2631 49.9151 93.2553C50.0515 93.2474 50.1881 93.2677 50.3163 93.3148C50.4407 93.3427 50.5581 93.3953 50.6616 93.4695C50.7651 93.5437 50.8526 93.638 50.9189 93.7468C50.9731 93.8523 51.0052 93.9678 51.0132 94.0861C51.0211 94.2044 51.0047 94.3231 50.9651 94.4349V94.4346ZM53.3122 94.7365L53.2966 94.8064L52.6486 94.6624L52.6561 94.6295C52.6632 94.6083 52.6653 94.5857 52.6621 94.5635C52.659 94.5414 52.6507 94.5202 52.638 94.5018C52.5895 94.4622 52.5308 94.4372 52.4687 94.4296C52.4171 94.4137 52.3626 94.4094 52.3091 94.4173C52.297 94.4217 52.2861 94.4289 52.2773 94.4384C52.2685 94.4479 52.262 94.4593 52.2585 94.4717C52.255 94.4841 52.2545 94.4972 52.257 94.5099C52.2595 94.5226 52.265 94.5345 52.2731 94.5446C52.3026 94.5717 52.3374 94.5925 52.3753 94.6058L52.7794 94.788C52.9368 94.8468 53.0747 94.9484 53.1775 95.0813C53.2115 95.1402 53.2333 95.2054 53.2416 95.2729C53.2499 95.3403 53.2445 95.4088 53.2258 95.4742C53.2088 95.5608 53.1708 95.6419 53.1151 95.7104C53.0595 95.7789 52.9878 95.8326 52.9065 95.8669C52.6944 95.947 52.4621 95.9564 52.2442 95.8938L52.2269 95.9015C51.6196 95.7667 51.3673 95.4751 51.4678 95.0224L51.4703 95.0114L52.1145 95.1543L52.1041 95.2022C52.0919 95.2575 52.0989 95.2938 52.1289 95.316C52.1966 95.3514 52.2696 95.3754 52.3451 95.3868C52.4025 95.4037 52.4623 95.4105 52.5219 95.407C52.5467 95.4009 52.5634 95.3775 52.5715 95.3406C52.5751 95.3278 52.5753 95.3143 52.5721 95.3014C52.5688 95.2885 52.5623 95.2766 52.5531 95.267C52.5119 95.234 52.4654 95.2081 52.4157 95.1904L52.0698 95.044C51.9124 94.9877 51.7739 94.8888 51.6696 94.7582C51.6304 94.6946 51.6053 94.6234 51.5957 94.5494C51.5862 94.4753 51.5925 94.4001 51.6142 94.3287C51.6314 94.2428 51.6693 94.1624 51.7248 94.0946C51.7803 94.0267 51.8515 93.9736 51.9323 93.9397C52.1445 93.8596 52.3769 93.8502 52.5949 93.9128C52.8154 93.9512 53.0186 94.057 53.1764 94.2157C53.2418 94.2837 53.2886 94.3673 53.3123 94.4586C53.3359 94.5498 53.3358 94.6456 53.3117 94.7368L53.3122 94.7365ZM55.3318 95.0359L54.8239 94.9638L54.7295 95.5672C54.7238 95.5873 54.723 95.6085 54.7271 95.6291C54.7311 95.6496 54.74 95.6688 54.7529 95.6853C54.7975 95.7171 54.8501 95.7359 54.9047 95.7396L55.2099 95.7875L55.1186 96.3721C54.9669 96.3807 54.8146 96.3721 54.6648 96.3465C54.4575 96.331 54.2628 96.241 54.1168 96.093C54.0617 96.016 54.024 95.9279 54.0063 95.8349C53.9886 95.7419 53.9913 95.6461 54.0143 95.5542L54.1252 94.8468L53.872 94.807L53.9617 94.2336L54.2373 94.2769L54.422 93.9013L54.9771 93.9882L54.9147 94.383L55.4213 94.4625L55.3318 95.0359ZM57.8321 96.6508L57.1749 96.5934L57.1975 96.3303L57.1752 96.3286C57.0988 96.4135 57.0042 96.48 56.8984 96.5232C56.7927 96.5664 56.6786 96.5851 56.5645 96.578C56.4506 96.5709 56.3396 96.5382 56.24 96.4823C56.1404 96.4263 56.0548 96.3486 55.9894 96.2549C55.876 96.0214 55.828 95.7615 55.8506 95.5029C55.8732 95.2443 55.9655 94.9966 56.1177 94.7863C56.1924 94.7031 56.2864 94.6395 56.3914 94.6013C56.4964 94.563 56.6092 94.5511 56.7199 94.5668C56.8318 94.5638 56.942 94.5948 57.036 94.6557C57.1299 94.7166 57.2032 94.8045 57.2462 94.9078L57.2801 94.9109L57.3537 94.0697L58.0521 94.1346L57.8321 96.6508ZM59.4548 96.6976L58.6111 96.6751L58.6317 95.8958L59.4753 95.9181L59.4548 96.6976ZM61.739 96.6586L61.6514 95.0014L61.0751 95.0308L61.0471 94.4774L61.172 94.471C61.2776 94.4689 61.3805 94.4375 61.4693 94.3803C61.5544 94.3167 61.6205 94.2311 61.6608 94.1329L62.3197 94.0991L62.4476 96.6226L61.739 96.6586ZM64.3455 96.4756L64.3469 96.4871C64.0698 96.5364 63.7843 96.483 63.5437 96.337C63.4447 96.2734 63.3615 96.1882 63.3001 96.0879C63.2387 95.9875 63.2008 95.8746 63.1892 95.7575L63.1866 95.7351L63.9344 95.6452L63.9372 95.6675C63.9367 95.6989 63.9444 95.7298 63.9597 95.7572C63.9749 95.7846 63.9972 95.8075 64.0241 95.8235C64.1047 95.8472 64.1898 95.8512 64.2722 95.8351C64.3655 95.8341 64.4554 95.8005 64.5265 95.7401C64.5486 95.706 64.5635 95.6679 64.5704 95.6279C64.5773 95.588 64.576 95.547 64.5666 95.5076L64.5303 95.2047L64.5115 95.2071C64.4577 95.2877 64.3826 95.3518 64.2947 95.3924C64.1775 95.4513 64.0506 95.4883 63.9202 95.5016C63.7047 95.5425 63.4818 95.5003 63.2961 95.3835C63.2153 95.3209 63.1489 95.2416 63.1014 95.1512C63.0538 95.0607 63.0262 94.9611 63.0204 94.859C63.0016 94.7445 63.0091 94.6272 63.0423 94.516C63.0756 94.4048 63.1338 94.3027 63.2125 94.2174C63.4085 94.029 63.6656 93.9173 63.937 93.9024C64.3485 93.8528 64.6612 93.9289 64.8712 94.1311C65.0812 94.3333 65.2158 94.6588 65.2698 95.1075C65.37 95.9348 65.0604 96.3893 64.346 96.4752L64.3455 96.4756ZM68.0418 95.6374C67.826 95.8317 67.557 95.9571 67.2694 95.9975L67.2488 96.0094C66.9682 96.0855 66.6711 96.0758 66.396 95.9816C66.2943 95.9417 66.2046 95.8761 66.1358 95.7912C66.0669 95.7062 66.0213 95.6049 66.0033 95.4971C65.966 95.3537 65.984 95.2015 66.0538 95.0707C66.1223 94.9523 66.2272 94.8593 66.3529 94.8055L66.3461 94.7722C66.2291 94.7607 66.1181 94.7153 66.0264 94.6418C65.9283 94.5578 65.8633 94.4417 65.843 94.3141C65.8222 94.2204 65.8257 94.1229 65.8532 94.031C65.8807 93.939 65.9313 93.8555 66.0002 93.7887C66.2152 93.6226 66.4653 93.5076 66.7314 93.4526C66.9975 93.3975 67.2726 93.4038 67.5359 93.471C67.6253 93.5044 67.7047 93.5602 67.7663 93.633C67.8279 93.7059 67.8697 93.7934 67.8878 93.8871C67.9197 94.0112 67.9058 94.1426 67.8486 94.2572C67.7938 94.3611 67.7098 94.4467 67.6069 94.5036L67.6141 94.5369C67.7499 94.5415 67.8813 94.5867 67.9912 94.6666C68.1091 94.7572 68.1874 94.89 68.2096 95.037C68.2359 95.143 68.2342 95.2539 68.2049 95.3591C68.1756 95.4642 68.1195 95.56 68.0422 95.6371L68.0418 95.6374ZM69.0973 95.5468L68.9944 95.1685C68.9338 95.0037 68.9307 94.8232 68.9856 94.6563C69.059 94.4976 69.1669 94.3573 69.3014 94.2455L69.8529 93.742C69.891 93.7121 69.9228 93.675 69.9465 93.6328C69.9606 93.5923 69.9601 93.5481 69.9451 93.508C69.9403 93.4794 69.9273 93.4527 69.9078 93.4313C69.8882 93.4099 69.8629 93.3946 69.8348 93.3872C69.7426 93.3792 69.6497 93.3916 69.5629 93.4236C69.4646 93.4408 69.3742 93.488 69.3039 93.5587C69.2871 93.593 69.2779 93.6306 69.2769 93.6688C69.2759 93.7071 69.2831 93.745 69.2981 93.7802L69.3171 93.8454L68.6372 94.0447L68.6201 93.987C68.5804 93.8691 68.5664 93.744 68.5789 93.6203C68.5914 93.4965 68.6302 93.3768 68.6927 93.2692C68.8188 93.0558 69.0654 92.8928 69.4312 92.7856C69.683 92.6905 69.9612 92.6929 70.2113 92.7923C70.3111 92.8407 70.3991 92.9104 70.4692 92.9964C70.5393 93.0825 70.5897 93.1828 70.617 93.2903C70.7262 93.663 70.5819 93.9884 70.1877 94.265L69.78 94.5494C69.7351 94.5756 69.6973 94.6124 69.6697 94.6565C69.6552 94.6878 69.6532 94.7234 69.664 94.7562L70.0003 94.6184L70.9053 94.3531L71.0849 94.9641L69.0973 95.5468ZM73.4023 84.1667C73.1879 84.1823 72.3822 83.1496 72.0145 82.7898C70.6415 81.413 69.131 79.9423 67.7238 78.7999C65.8181 77.2353 63.0742 75.749 59.8038 75.7334C56.3678 75.7178 53.8207 77.298 51.9495 79.0034C49.9811 80.8028 48.3805 82.7584 46.345 84.4643C43.1673 81.1631 39.8612 78.0181 36.6772 74.7169C38.259 72.8081 40.3306 71.1497 42.061 69.1936C43.9309 67.0656 45.6847 64.093 45.4047 60.1031C45.123 56.1915 42.6541 53.9387 40.4605 51.7325C39.1399 50.4183 37.8069 49.1665 36.6038 47.8835C39.8065 44.5198 43.0201 41.1557 46.4177 37.9952C48.2155 39.7789 50.0116 41.3749 51.8031 43.1586C53.7338 45.0986 56.2888 46.9605 60.2363 46.7256C64.9553 46.4292 67.9859 43.1115 70.6394 40.4672C71.6658 39.4347 72.7235 38.5585 73.6888 37.5571C77.0622 40.702 80.2461 44.0345 83.5037 47.3047C81.8233 49.276 79.8424 51.0283 78.0525 52.984C76.2924 54.8929 74.6902 57.1146 74.5619 60.5411C74.4337 63.9362 75.9012 66.7839 77.4721 68.8177C79.1211 70.977 81.2791 72.5104 83.003 74.4347C80.0944 77.4856 77.1419 80.4271 73.9815 83.5876C73.8253 83.7439 73.3794 84.1664 73.4028 84.1664L73.4023 84.1667ZM74.9545 93.2872C74.7455 93.3844 74.5064 93.3947 74.2899 93.3157C74.0734 93.2367 73.8971 93.0749 73.7999 92.8659C73.7026 92.657 73.6924 92.4179 73.7714 92.2014C73.8504 91.9849 74.0122 91.8086 74.2211 91.7113C79.3533 89.3257 83.8072 85.6943 87.1775 81.1477C90.5478 76.6011 92.7273 71.2837 93.5177 65.6796C94.3082 60.0756 93.6843 54.3628 91.7031 49.0614C89.7218 43.76 86.446 39.0383 82.1739 35.3263C82.0029 35.1742 81.8988 34.9608 81.8842 34.7324C81.8696 34.5041 81.9456 34.2791 82.0958 34.1065C82.2459 33.9338 82.4581 33.8273 82.6863 33.8101C82.9145 33.7929 83.1403 33.8664 83.3146 34.0146C87.8052 37.9168 91.2486 42.8802 93.3312 48.4529C95.4138 54.0257 96.0695 60.0309 95.2386 65.9218C94.4078 71.8127 92.1168 77.4022 88.5741 82.1816C85.0314 86.961 80.3497 90.7784 74.9549 93.2864L74.9545 93.2872Z" fill="#F2F4EF"/>
<path d="M74.0146 29.4909L74.0116 29.4976C74.0487 29.5202 74.0904 29.5341 74.1336 29.5383C74.1768 29.5426 74.2205 29.537 74.2612 29.5221C74.3402 29.4491 74.4036 29.3608 74.4476 29.2626C74.4915 29.1644 74.515 29.0583 74.5168 28.9507C74.5001 28.8855 74.4388 28.8292 74.3321 28.7816C74.295 28.759 74.2533 28.745 74.2101 28.7408C74.1668 28.7365 74.1232 28.742 74.0824 28.7569C74.004 28.8288 73.9412 28.916 73.8979 29.0131C73.8545 29.1102 73.8315 29.2151 73.8303 29.3214C73.8465 29.3868 73.9079 29.4433 74.0146 29.4909Z" fill="#F2F4EF"/>
<path d="M64.3567 94.581C64.257 94.5575 64.1533 94.5557 64.0528 94.5759C63.949 94.5802 63.8474 94.6068 63.7548 94.6539C63.7326 94.6744 63.7164 94.7007 63.7078 94.7297C63.6993 94.7588 63.6987 94.7896 63.7063 94.8189C63.7067 94.8495 63.7152 94.8793 63.731 94.9055C63.7468 94.9316 63.7693 94.9531 63.7961 94.9676C63.897 94.9944 64.0027 94.9971 64.1048 94.9757L64.101 94.9765C64.204 94.9734 64.3047 94.9456 64.3946 94.8954C64.4162 94.8743 64.432 94.8481 64.4405 94.8192C64.4489 94.7903 64.4497 94.7596 64.4429 94.7303C64.4435 94.6999 64.4359 94.6699 64.4207 94.6436C64.4055 94.6173 64.3834 94.5956 64.3567 94.581Z" fill="#F2F4EF"/>
</svg>
