<?xml version="1.0" encoding="UTF-8" standalone="no"?>
<!DOCTYPE svg PUBLIC "-//W3C//DTD SVG 1.1//EN" "http://www.w3.org/Graphics/SVG/1.1/DTD/svg11.dtd">
<svg width="100%" height="100%" viewBox="0 0 512 512" version="1.1" xmlns="http://www.w3.org/2000/svg" xmlns:xlink="http://www.w3.org/1999/xlink" xml:space="preserve" xmlns:serif="http://www.serif.com/" style="fill-rule:evenodd;clip-rule:evenodd;stroke-linejoin:round;stroke-miterlimit:2;">
    <path d="M241.9,282.8L241.9,199.4C215.5,200.6 190.7,210.8 171.1,228.7L230.1,287.7C233.7,285.2 237.7,283.6 241.9,282.8Z" style="fill:rgb(255,216,0);fill-rule:nonzero;"/>
    <path d="M222.9,328.7C220.6,325.4 218.9,321.6 218.1,317.6L134.6,317.6C135.9,343.8 146.2,368.3 163.9,387.7L222.9,328.7Z" style="fill:rgb(255,216,0);fill-rule:nonzero;"/>
    <path d="M241.9,340.7C237.7,340 233.7,338.3 230.1,335.8L171.1,394.8C190.6,412.7 215.4,422.9 241.9,424.1L241.9,340.7Z" style="fill:rgb(255,216,0);fill-rule:nonzero;"/>
    <path d="M134.6,307.4L217.9,307.4C218.6,302.9 220.3,298.7 222.9,295L163.9,236C145.9,255.6 135.6,280.7 134.6,307.4Z" style="fill:rgb(255,216,0);fill-rule:nonzero;"/>
    <path d="M252.1,282.8C256.3,283.5 260.3,285.2 263.9,287.7L322.9,228.7C303.4,210.8 278.6,200.6 252.1,199.4L252.1,282.8Z" style="fill:rgb(255,216,0);fill-rule:nonzero;"/>
    <path d="M330.1,235.9L271.1,294.9C273.7,298.6 275.4,302.8 276.1,307.3L359.4,307.3C358.4,280.7 348.1,255.6 330.1,235.9Z" style="fill:rgb(255,216,0);fill-rule:nonzero;"/>
    <path d="M257.2,447.3C285.7,446 312.5,435 333.5,415.7L257.2,337L257.2,447.3Z" style="fill:rgb(255,216,0);fill-rule:nonzero;"/>
    <path d="M271.1,328.7L330.1,387.7C347.8,368.3 358.1,343.8 359.4,317.6L275.9,317.6C275,321.6 273.4,325.3 271.1,328.7Z" style="fill:rgb(255,216,0);fill-rule:nonzero;"/>
    <path d="M247,140.3C152.3,140.3 75.5,217.1 75.5,311.8C75.5,404.8 149.6,480.5 241.9,483.2L241.8,460.7C204,459.4 168.4,443.9 141.6,417.1C113.4,388.9 97.9,351.5 97.9,311.7C97.9,271.9 113.4,234.4 141.6,206.3C169.8,178.1 207.2,162.6 247,162.6C286.8,162.6 324.3,178.1 352.4,206.3C380.6,234.5 396.1,271.9 396.1,311.7C396.1,349.6 381.9,385.7 356,413.4L371.7,429.4C400.7,398.7 418.5,357.3 418.5,311.7C418.5,217.1 341.7,140.3 247,140.3Z" style="fill:rgb(240,164,36);fill-rule:nonzero;"/>
    <path d="M361.1,443.6C332.8,470 295.9,485.2 257.2,486.6L257.1,511C303.9,509.6 346.3,490.9 378.1,461L361.1,443.6Z" style="fill:rgb(240,164,36);fill-rule:nonzero;"/>
    <path d="M353.1,410.6C378.2,383.7 392,348.6 392,311.8C392,273.1 376.9,236.7 349.5,209.3C322.1,181.9 285.7,166.8 247,166.8C208.3,166.8 171.9,181.9 144.5,209.3C117.1,236.7 102,273.1 102,311.8C102,350.5 117.1,386.9 144.5,414.3C170.6,440.4 205.2,455.4 241.9,456.7L241.9,434.4C211,433.1 182.2,420.5 160.2,398.6C137,375.4 124.3,344.6 124.3,311.8C124.3,279 137.1,248.2 160.2,225C183.4,201.8 214.2,189.1 247,189.1C279.8,189.1 310.6,201.9 333.8,225C357,248.1 369.7,279 369.7,311.8C369.7,342.9 358.2,372.2 337.3,394.9L353.1,410.6Z" style="fill:rgb(255,216,0);fill-rule:nonzero;"/>
    <path d="M358.4,440.6L341.3,423.5C318.2,444.8 288.7,457.1 257.2,458.3L257.2,482.5C294.9,481.2 330.8,466.3 358.4,440.6Z" style="fill:rgb(255,216,0);fill-rule:nonzero;"/>
    <path d="M147.7,160.3C147.6,153.9 147.6,147.2 147.6,140.3C147.6,82.7 194.5,35.8 252.1,35.8C309.7,35.8 356.6,82.7 356.6,140.3C356.6,149.8 356.5,158.8 356.3,167.4C369.7,177.6 381.7,189.6 391.8,203C392.8,185 393.3,164.3 393.3,140.3C393.4,62.2 330.1,-1 252.1,-1C174.1,-1 110.8,62.2 110.8,140.3C110.8,159.2 111.1,176.2 111.7,191.4C122.3,179.5 134.4,169 147.7,160.3Z" style="fill:rgb(255,216,0);fill-rule:nonzero;"/>
</svg>
