<svg width="60" height="60" viewBox="0 0 60 60" fill="none" xmlns="http://www.w3.org/2000/svg">
<path d="M52.0761 50.3271C54.4758 47.7865 56.4126 44.7173 57.8475 41.1212C59.2881 37.5134 60.1992 33.2712 59.9627 28.2508C59.7524 23.7806 58.4452 19.8012 56.7608 16.4707C54.9705 12.9268 52.9989 10.4384 50.3047 7.94996C45.3241 3.35059 38.0511 -0.522865 28.2436 0.0578632C27.1207 0.123195 25.9847 0.250956 24.8139 0.457115C17.4438 1.75649 11.8755 5.31345 7.84229 9.72263C5.42233 12.3664 3.63638 15.225 2.12608 18.9867C0.681072 22.5901 -0.273552 26.9688 0.070291 31.7976C0.402527 36.484 1.53997 40.2486 3.26934 43.5791C4.9842 46.882 7.09512 49.6782 9.72835 52.0998C14.619 56.5976 22.1386 60.5639 31.7299 59.9338C40.9585 59.3299 47.3 55.3809 52.0761 50.3271ZM43.7325 36.2009C45.0281 37.8894 46.7255 39.1046 48.0762 40.6058C45.7955 43.0129 43.4743 45.3227 40.989 47.8097C40.8642 47.9331 40.5131 48.2685 40.532 48.2685C40.3666 48.2743 39.7312 47.4685 39.4468 47.1811C38.363 46.0965 37.1748 44.9365 36.0737 44.0364C34.5692 42.8067 32.4147 41.6424 29.8453 41.6351C27.1483 41.6264 25.1461 42.8648 23.6736 44.2077C22.1313 45.6131 20.8706 47.1578 19.2703 48.4964C16.772 45.9093 14.1707 43.4223 11.671 40.8337C12.9158 39.3252 14.5407 38.0259 15.9016 36.4869C17.3712 34.8188 18.7539 32.477 18.5304 29.3382C18.307 26.2603 16.3702 24.492 14.6422 22.7614C13.6078 21.7263 12.5589 20.742 11.6144 19.73C14.1316 17.0848 16.6545 14.4425 19.3269 11.9526C20.7386 13.3536 22.1517 14.6066 23.5575 16.0134C25.075 17.532 27.0859 19.0027 30.1863 18.8154C33.896 18.5904 36.2811 15.9771 38.3601 13.8966C39.1697 13.0865 40.001 12.394 40.7598 11.61C43.4119 14.0824 45.916 16.7044 48.4752 19.2727C47.1521 20.8233 45.5953 22.2025 44.1881 23.7342C42.8054 25.2397 41.5461 26.9964 41.446 29.6808C41.3459 32.358 42.4964 34.5909 43.7325 36.2009Z" fill="white"/>
</svg>
