<svg width="60" height="60" viewBox="0 0 60 60" fill="none" xmlns="http://www.w3.org/2000/svg">
<path d="M17.8873 2.58619L26.5269 3.62136L34.604 0.386019C36.8163 -0.50028 39.3471 0.178292 40.8202 2.05129L46.1969 8.89241L54.1961 12.3147C56.3876 13.2512 57.698 15.5223 57.4141 17.887L56.3789 26.5266L59.616 34.6037C60.5023 36.816 59.8237 39.3468 57.9507 40.8199L51.1096 46.1966L47.6873 54.1958C46.7508 56.3873 44.4797 57.6977 42.1151 57.4138L33.4754 56.3786L25.3983 59.6157C23.186 60.502 20.6552 59.8234 19.1821 57.9504L13.8054 51.1093L5.80625 47.687C3.61474 46.7505 2.30433 44.4794 2.58822 42.1148L3.62339 33.4751L0.386324 25.3963C-0.499975 23.184 0.178598 20.6532 2.0516 19.1801L8.89272 13.8034L12.315 5.80421C13.2515 3.6127 15.5226 2.30229 17.8873 2.58619Z" fill="#22AE00"/>
<path d="M6.80664 42.7397V26.653L11.0564 25.926L15.0101 32.4763L15.9397 34.287L16.2149 34.2385L16.0037 32.3049V25.0778L19.9574 24.4026V40.4893L15.7285 41.2129L11.9859 35.1542L10.8452 33.0683L10.5699 33.115L10.7829 35.3585V42.0594L6.80664 42.7397Z" fill="white"/>
<path d="M21.5293 40.221V24.1343L32.9664 22.1782V26.2341L25.5038 27.5116V29.4573L32.6496 28.2352V32.2685L25.5038 33.4906V35.4831L32.9664 34.2073V38.2649L21.5293 40.221Z" fill="white"/>
<path d="M35.8487 37.7716L33.375 22.109L37.7719 21.356L38.4487 26.9075L38.9351 33.212L39.2104 33.1635L39.972 26.6478L41.0072 20.8038L46.6937 19.831L47.6666 25.0899L48.5546 31.5658L48.8281 31.519L49.337 24.8043L49.9498 19.2736L54.2619 18.5361L51.7674 35.0486L45.9321 36.0475L44.7065 30.1584L43.9448 24.7904L43.6921 24.8337L42.9096 30.4665L41.6823 36.7745L35.8487 37.7716Z" fill="white"/>
<path d="M22.327 44.4361L54.5315 38.9019C55.0023 38.8205 55.3191 38.3739 55.2378 37.9031C55.1564 37.4322 54.7098 37.1155 54.2389 37.1968L22.0344 42.731C21.5636 42.8124 21.2468 43.259 21.3282 43.7298C21.4095 44.2007 21.8561 44.5174 22.327 44.4361Z" fill="white"/>
<path d="M7.01156 24.252L39.2161 18.7178C39.6869 18.6365 40.0037 18.1899 39.9223 17.719C39.841 17.2482 39.3944 16.9314 38.9235 17.0127L6.71901 22.5469C6.24817 22.6283 5.93138 23.0749 6.01274 23.5457C6.0941 24.0166 6.54071 24.3334 7.01156 24.252Z" fill="white"/>
</svg>
