<?xml version="1.0" encoding="UTF-8"?>
<svg id="Ebene_1" xmlns="http://www.w3.org/2000/svg" version="1.1" viewBox="0 0 100 100">
  <!-- Generator: Adobe Illustrator 29.4.0, SVG Export Plug-In . SVG Version: 2.1.0 Build 152)  -->
  <defs>
    <style>
      .st0 {
        fill: #fff;
      }

      .st1 {
        fill: #c1272d;
      }
    </style>
  </defs>
  <path class="st1" d="M29.813,4.31l14.399,1.727L57.674.642c3.687-1.477,7.906-.347,10.36,2.776l8.961,11.402,13.333,5.704c3.651,1.562,5.836,5.345,5.363,9.288l-1.727,14.399,5.394,13.461c1.477,3.687.347,7.906-2.776,10.36l-11.402,8.961-5.704,13.333c-1.562,3.651-5.345,5.836-9.288,5.363l-14.399-1.727-13.461,5.394c-3.687,1.477-7.906.347-10.36-2.776l-8.961-11.402-13.333-5.704c-3.651-1.562-5.835-5.345-5.363-9.288l1.727-14.399L.642,42.327c-1.477-3.687-.347-7.906,2.776-10.36l11.402-8.961,5.704-13.333c1.562-3.651,5.345-5.836,9.288-5.363Z"/>
  <path class="st0" d="M16.549,49.74l4.632-.795c1.73-.296,2.213.13,2.196,1.913-.02,1.93-.514,2.561-2.244,2.857l-4.632.795.048-4.77ZM16.363,67.981l.08-7.79,1.499-.259c2.057-.349,2.474.194,3.365,2.15l2.103,4.691,7.145-1.223-2.227-5.142c-.828-1.933-1.69-3.344-3.905-3.62l.004-.327c3.691-1.104,5.053-3.739,5.093-7.599.049-4.877-2.534-7.052-8.048-6.108l-10.997,1.885-.248,24.394,6.135-1.051Z"/>
  <path class="st0" d="M38.115,52.188l1.861-6.677.455-.079,1.665,6.075.376,1.352-4.795.82.438-1.49ZM34.402,64.89l1.451-4.936,8.289-1.42,1.289,4.466,6.723-1.15-7.323-23.098-8.909,1.527-7.85,25.696,6.329-1.085Z"/>
  <path class="st0" d="M89.798,55.4l.063-6.153-11.518,1.972.031-3.02,11.029-1.888.062-6.12-11.029,1.891.03-2.95,11.518-1.972.062-6.153-17.653,3.023-.248,24.394,17.653-3.023ZM57.457,42.733l4.632-.795c1.73-.296,2.213.13,2.195,1.913-.018,1.93-.513,2.561-2.243,2.857l-4.632.792.048-4.767ZM57.271,60.973l.08-7.793,1.499-.256c2.057-.352,2.474.194,3.365,2.15l2.103,4.691,7.145-1.226-2.227-5.142c-.828-1.93-1.69-3.344-3.905-3.62l.004-.327c3.691-1.104,5.053-3.736,5.093-7.596.051-4.877-2.536-7.052-8.048-6.108l-10.997,1.882-.248,24.394,6.135-1.048Z"/>
  <path class="st0" d="M35.38,71.949l53.674-9.223c.785-.135,1.312-.881,1.177-1.666s-.881-1.312-1.666-1.177l-53.674,9.223c-.785.135-1.312.881-1.177,1.666s.881,1.312,1.666,1.177"/>
  <path class="st0" d="M12.086,40.049l53.674-9.223c.785-.135,1.312-.881,1.177-1.666s-.881-1.312-1.666-1.177l-53.674,9.223c-.785.135-1.312.881-1.177,1.666s.881,1.312,1.666,1.177"/>
  <path class="st0" d="M78.049,25l-1.516,1.135c-.408.306-.645.788-.637,1.298l.03,1.894c.008.488-.542.779-.941.498l-1.548-1.091c-.417-.294-.949-.37-1.431-.204l-1.792.614c-.462.158-.908-.275-.764-.741l.559-1.81c.15-.487.058-1.016-.248-1.424l-1.138-1.514c-.293-.391-.019-.949.469-.956l1.894-.027c.51-.007.985-.259,1.278-.676l1.089-1.55c.281-.4.896-.312,1.054.151l.611,1.793c.165.482.55.857,1.037,1.006l1.811.557c.467.144.573.756.183,1.049Z"/>
</svg>